<svg width="122" height="20" viewBox="0 0 122 20" fill="none" xmlns="http://www.w3.org/2000/svg">
<path d="M5.52 12.304L0.24 1.48H3.744L7.776 9.952L7.008 9.712H9.288L8.472 9.952L12.144 1.48H15.456L10.584 12.304H5.52ZM6.384 19V11.776H9.72V19H6.384ZM25.4858 19.456C23.9018 19.456 22.5258 19.176 21.3578 18.616C20.2058 18.056 19.2458 17.328 18.4778 16.432C17.7258 15.52 17.1578 14.544 16.7738 13.504C16.4058 12.448 16.2218 11.432 16.2218 10.456V9.928C16.2218 8.856 16.4138 7.792 16.7978 6.736C17.1818 5.664 17.7578 4.696 18.5258 3.832C19.3098 2.968 20.2778 2.28 21.4297 1.768C22.5818 1.24 23.9338 0.975999 25.4858 0.975999C27.0218 0.975999 28.3658 1.24 29.5178 1.768C30.6698 2.28 31.6298 2.968 32.3978 3.832C33.1818 4.696 33.7658 5.664 34.1498 6.736C34.5338 7.792 34.7258 8.856 34.7258 9.928V10.456C34.7258 11.432 34.5338 12.448 34.1498 13.504C33.7818 14.544 33.2138 15.52 32.4458 16.432C31.6938 17.328 30.7338 18.056 29.5658 18.616C28.4138 19.176 27.0538 19.456 25.4858 19.456ZM25.4858 16.288C26.3818 16.288 27.1818 16.128 27.8858 15.808C28.6058 15.488 29.2138 15.048 29.7098 14.488C30.2218 13.912 30.6058 13.264 30.8618 12.544C31.1338 11.808 31.2698 11.032 31.2698 10.216C31.2698 9.336 31.1338 8.528 30.8618 7.792C30.6058 7.056 30.2218 6.416 29.7098 5.872C29.2138 5.328 28.6058 4.904 27.8858 4.6C27.1658 4.296 26.3658 4.144 25.4858 4.144C24.5898 4.144 23.7818 4.296 23.0618 4.6C22.3418 4.904 21.7258 5.328 21.2138 5.872C20.7178 6.416 20.3338 7.056 20.0618 7.792C19.8058 8.528 19.6778 9.336 19.6778 10.216C19.6778 11.032 19.8058 11.808 20.0618 12.544C20.3338 13.264 20.7178 13.912 21.2138 14.488C21.7258 15.048 22.3418 15.488 23.0618 15.808C23.7818 16.128 24.5898 16.288 25.4858 16.288ZM45.2434 19.456C43.6114 19.456 42.2354 19.144 41.1154 18.52C39.9954 17.896 39.1394 17.024 38.5474 15.904C37.9714 14.768 37.6834 13.44 37.6834 11.92V1.48H41.0914V12.112C41.0914 12.944 41.2514 13.68 41.5714 14.32C41.8914 14.944 42.3554 15.432 42.9634 15.784C43.5874 16.12 44.3474 16.288 45.2434 16.288C46.1234 16.288 46.8674 16.12 47.4754 15.784C48.0994 15.432 48.5634 14.944 48.8674 14.32C49.1874 13.696 49.3474 12.96 49.3474 12.112V1.48H52.7554V11.92C52.7554 13.44 52.4674 14.768 51.8914 15.904C51.3314 17.024 50.4914 17.896 49.3714 18.52C48.2514 19.144 46.8754 19.456 45.2434 19.456ZM56.7459 19V1.36H60.1539V19H56.7459ZM67.4499 19L62.0739 11.368H65.8899L71.4339 19H67.4499ZM59.1459 13.144V10.384H63.6099C64.2339 10.384 64.7699 10.256 65.2179 10C65.6819 9.744 66.0419 9.384 66.2979 8.92C66.5539 8.456 66.6819 7.928 66.6819 7.336C66.6819 6.728 66.5539 6.192 66.2979 5.728C66.0419 5.264 65.6819 4.904 65.2179 4.648C64.7699 4.392 64.2339 4.264 63.6099 4.264H59.1459V1.36H63.2499C64.6579 1.36 65.8739 1.568 66.8979 1.984C67.9379 2.4 68.7379 3.032 69.2979 3.88C69.8579 4.728 70.1379 5.792 70.1379 7.072V7.456C70.1379 8.752 69.8499 9.816 69.2739 10.648C68.7139 11.48 67.9219 12.104 66.8979 12.52C65.8739 12.936 64.6579 13.144 63.2499 13.144H59.1459Z" fill="white"/>
<path d="M79.8548 19.456C78.3028 19.456 76.9908 19.208 75.9188 18.712C74.8628 18.216 74.0548 17.536 73.4948 16.672C72.9348 15.792 72.6548 14.8 72.6548 13.696H75.9908C75.9908 14.16 76.1188 14.616 76.3748 15.064C76.6308 15.496 77.0388 15.848 77.5988 16.12C78.1748 16.392 78.9268 16.528 79.8548 16.528C80.6868 16.528 81.3828 16.408 81.9428 16.168C82.5028 15.928 82.9188 15.616 83.1908 15.232C83.4628 14.832 83.5988 14.384 83.5988 13.888C83.5988 13.264 83.3348 12.768 82.8068 12.4C82.2788 12.016 81.4628 11.776 80.3588 11.68L78.8228 11.56C77.1428 11.416 75.7988 10.896 74.7908 10C73.7988 9.088 73.3027 7.888 73.3027 6.4C73.3027 5.28 73.5668 4.32 74.0948 3.52C74.6228 2.704 75.3588 2.08 76.3028 1.648C77.2628 1.2 78.3828 0.975999 79.6628 0.975999C80.9908 0.975999 82.1348 1.208 83.0948 1.672C84.0548 2.136 84.7988 2.792 85.3268 3.64C85.8548 4.472 86.1188 5.456 86.1188 6.592H82.7828C82.7828 6.112 82.6628 5.672 82.4228 5.272C82.1988 4.856 81.8548 4.528 81.3908 4.288C80.9428 4.032 80.3668 3.904 79.6628 3.904C78.9908 3.904 78.4308 4.016 77.9828 4.24C77.5348 4.464 77.1988 4.768 76.9748 5.152C76.7508 5.536 76.6388 5.952 76.6388 6.4C76.6388 6.944 76.8388 7.424 77.2388 7.84C77.6388 8.24 78.2708 8.472 79.1348 8.536L80.6708 8.68C81.9188 8.776 83.0148 9.04 83.9588 9.472C84.9028 9.904 85.6308 10.488 86.1428 11.224C86.6708 11.96 86.9348 12.848 86.9348 13.888C86.9348 14.992 86.6468 15.968 86.0708 16.816C85.4948 17.648 84.6708 18.296 83.5988 18.76C82.5428 19.224 81.2948 19.456 79.8548 19.456ZM90.0506 19V1.48H93.3866V19H90.0506ZM92.9066 19V16.12H100.851V19H92.9066ZM92.9066 11.536V8.656H100.227V11.536H92.9066ZM92.9066 4.36V1.48H100.659V4.36H92.9066ZM112.343 19.456C110.839 19.456 109.511 19.208 108.359 18.712C107.223 18.2 106.263 17.52 105.479 16.672C104.711 15.808 104.127 14.84 103.727 13.768C103.343 12.68 103.151 11.552 103.151 10.384V9.856C103.151 8.752 103.343 7.672 103.727 6.616C104.111 5.56 104.671 4.608 105.407 3.76C106.159 2.912 107.079 2.24 108.167 1.744C109.271 1.232 110.535 0.975999 111.959 0.975999C113.495 0.975999 114.855 1.264 116.039 1.84C117.223 2.4 118.175 3.192 118.895 4.216C119.615 5.224 120.039 6.4 120.167 7.744H116.735C116.623 6.992 116.343 6.352 115.895 5.824C115.447 5.28 114.879 4.864 114.191 4.576C113.519 4.288 112.775 4.144 111.959 4.144C111.143 4.144 110.399 4.288 109.727 4.576C109.071 4.864 108.511 5.272 108.047 5.8C107.583 6.328 107.223 6.96 106.967 7.696C106.727 8.432 106.607 9.248 106.607 10.144C106.607 11.12 106.743 11.992 107.015 12.76C107.287 13.528 107.671 14.184 108.167 14.728C108.663 15.256 109.263 15.664 109.967 15.952C110.671 16.224 111.463 16.36 112.343 16.36C113.511 16.36 114.535 16.12 115.415 15.64C116.295 15.144 116.935 14.504 117.335 13.72L116.735 16.48V11.968H119.879V15.856C119.127 16.992 118.103 17.88 116.807 18.52C115.511 19.144 114.023 19.456 112.343 19.456ZM111.791 12.64V10.096H121.343V12.64H111.791Z" fill="#654520"/>
</svg>
