<svg width="46" height="59" viewBox="0 0 46 59" fill="none" xmlns="http://www.w3.org/2000/svg">
<path d="M19.4338 0.365395C16.6289 1.27363 14.0645 3.75792 13.2097 6.4292C12.622 8.27238 12.6487 11.3711 13.2898 13.054C14.0111 14.9506 15.0796 16.3396 21.8379 24.2199C25.1503 28.0933 28.3291 31.9132 28.8634 32.7146C29.9853 34.3975 30.6799 36.401 30.6799 38.0304C30.6799 39.4462 30.067 43.1951 28.042 43.7737C27.3408 43.974 27.6413 43.58 27.6413 47.4801V51.487L28.9435 51.1865L30.1456 50.6856C31.9487 49.9844 34.7402 47.1128 35.6751 45.2429C36.9574 42.7319 37.358 41.0223 37.358 38.1373C37.358 36.2674 37.1978 35.0386 36.7971 33.7297C35.6217 29.9097 34.9272 28.9481 26.4859 19.1178C20.4221 12.0923 19.4605 10.7834 19.4605 9.52788C19.4605 8.5128 20.3954 7.25729 21.4105 6.93674C23.3071 6.29564 25.0702 7.79155 25.0702 9.982V10.9169H28.436H31.8285L31.6949 8.83335C31.4812 5.28055 29.6648 2.55584 26.5127 1.0065C24.4291 -0.0352974 21.4907 -0.302425 19.4338 0.365395Z" fill="#654520"/>
<path d="M19.4338 0.365395C16.6289 1.27363 14.0645 3.75792 13.2097 6.4292C12.622 8.27238 12.6487 11.3711 13.2898 13.054C14.0111 14.9506 15.0796 16.3396 21.8379 24.2199C25.1503 28.0933 28.3291 31.9132 28.8634 32.7146C29.9853 34.3975 30.6799 36.401 30.6799 38.0304C30.6799 39.4462 30.067 43.1951 28.042 43.7737C27.3408 43.974 27.6413 43.58 27.6413 47.4801V51.487L28.9435 51.1865L30.1456 50.6856C31.9487 49.9844 34.7402 47.1128 35.6751 45.2429C36.9574 42.7319 37.358 41.0223 37.358 38.1373C37.358 36.2674 37.1978 35.0386 36.7971 33.7297C35.6217 29.9097 34.9272 28.9481 26.4859 19.1178C20.4221 12.0923 19.4605 10.7834 19.4605 9.52788C19.4605 8.5128 20.3954 7.25729 21.4105 6.93674C23.3071 6.29564 25.0702 7.79155 25.0702 9.982V10.9169H28.436H31.8285L31.6949 8.83335C31.4812 5.28055 29.6648 2.55584 26.5127 1.0065C24.4291 -0.0352974 21.4907 -0.302425 19.4338 0.365395Z" fill="black" fill-opacity="0.5"/>
<path d="M0 6.10867C0.160277 6.42922 1.41578 13.0807 15.1996 29.0817L19.9277 34.5578V39.286C19.9277 41.9038 19.8743 44.0408 19.7942 44.0408L19.9277 51.3334V55.1801V59H23.2668H26.6059C26.6059 59 26.6059 50.7294 26.6059 45.4299C26.6059 40.1409 26.6059 31.8865 26.6059 31.8865L17.8976 21.7356C13.0893 16.1527 8.09398 10.356 6.78505 8.83337L0 6.10867Z" fill="black"/>
<path d="M18.7255 44.0408C18.7255 44.0408 16.8823 43.0792 15.9474 42.0107C14.4248 40.2743 13.7837 38.4044 13.7837 35.6263V33.3557H10.4446H7.10547V36.3475C7.10547 38.7517 7.23903 39.7134 7.71986 41.1291C9.32263 45.8306 13.1693 49.6505 17.7372 50.9862L18.8591 51.3334L18.7255 44.0408Z" fill="#654520"/>
<path d="M18.7255 44.0408C18.7255 44.0408 16.8823 43.0792 15.9474 42.0107C14.4248 40.2743 13.7837 38.4044 13.7837 35.6263V33.3557H10.4446H7.10547V36.3475C7.10547 38.7517 7.23903 39.7134 7.71986 41.1291C9.32263 45.8306 13.1693 49.6505 17.7372 50.9862L18.8591 51.3334L18.7255 44.0408Z" fill="black" fill-opacity="0.5"/>
<path d="M39.4414 8.03199C34.1523 14.0424 30.9467 17.9424 31.1337 18.2096C31.2406 18.3966 32.229 19.5986 33.3242 20.8808L35.3276 23.2316L35.8886 22.6172C36.8503 21.6288 45.5319 6.10867 45.5319 6.10867C45.6922 5.86825 45.7723 5.73469 45.5319 6.10867L39.4414 8.03199Z" fill="black"/>
</svg>
