<svg width="229" height="295" viewBox="0 0 229 295" fill="none" xmlns="http://www.w3.org/2000/svg">
<path d="M97.5333 2.33334C83.5333 6.86668 70.7333 19.2667 66.4667 32.6C63.5333 41.8 63.6667 57.2667 66.8667 65.6667C70.4667 75.1333 75.8 82.0667 109.533 121.4C126.067 140.733 141.933 159.8 144.6 163.8C150.2 172.2 153.667 182.2 153.667 190.333C153.667 197.4 150.607 216.112 140.5 219C137 220 138.5 218.033 138.5 237.5V257.5L145 256L151 253.5C160 250 173.933 235.667 178.6 226.333C185 213.8 187 205.267 187 190.867C187 181.533 186.2 175.4 184.2 168.867C178.333 149.8 174.867 145 132.733 95.9333C102.467 60.8667 97.6666 54.3333 97.6666 48.0667C97.6666 43 102.333 36.7333 107.4 35.1333C116.867 31.9333 125.667 39.4 125.667 50.3333V55H142.467H159.4L158.733 44.6C157.667 26.8667 148.6 13.2667 132.867 5.53336C122.467 0.333356 107.8 -0.99999 97.5333 2.33334Z" fill="#654520"/>
<path d="M97.5333 2.33334C83.5333 6.86668 70.7333 19.2667 66.4667 32.6C63.5333 41.8 63.6667 57.2667 66.8667 65.6667C70.4667 75.1333 75.8 82.0667 109.533 121.4C126.067 140.733 141.933 159.8 144.6 163.8C150.2 172.2 153.667 182.2 153.667 190.333C153.667 197.4 150.607 216.112 140.5 219C137 220 138.5 218.033 138.5 237.5V257.5L145 256L151 253.5C160 250 173.933 235.667 178.6 226.333C185 213.8 187 205.267 187 190.867C187 181.533 186.2 175.4 184.2 168.867C178.333 149.8 174.867 145 132.733 95.9333C102.467 60.8667 97.6666 54.3333 97.6666 48.0667C97.6666 43 102.333 36.7333 107.4 35.1333C116.867 31.9333 125.667 39.4 125.667 50.3333V55H142.467H159.4L158.733 44.6C157.667 26.8667 148.6 13.2667 132.867 5.53336C122.467 0.333356 107.8 -0.99999 97.5333 2.33334Z" fill="black" fill-opacity="0.5"/>
<path d="M0.533203 31C1.3332 32.6 7.59988 65.8 76.3999 145.667L99.9999 173V196.6C99.9999 209.667 99.7332 220.333 99.3332 220.333L99.9999 256.733V275.933V295H116.667H133.333C133.333 295 133.333 253.718 133.333 227.267C133.333 200.867 133.333 159.667 133.333 159.667L89.8665 109C65.8665 81.1333 40.9332 52.2 34.3999 44.6L0.533203 31Z" fill="black"/>
<path d="M94 220.333C94 220.333 84.8 215.533 80.1333 210.2C72.5333 201.533 69.3333 192.2 69.3333 178.333V167H52.6667H36V181.933C36 193.933 36.6667 198.733 39.0667 205.8C47.0667 229.267 66.2667 248.333 89.0667 255L94.6667 256.733L94 220.333Z" fill="#654520"/>
<path d="M94 220.333C94 220.333 84.8 215.533 80.1333 210.2C72.5333 201.533 69.3333 192.2 69.3333 178.333V167H52.6667H36V181.933C36 193.933 36.6667 198.733 39.0667 205.8C47.0667 229.267 66.2667 248.333 89.0667 255L94.6667 256.733L94 220.333Z" fill="black" fill-opacity="0.5"/>
<path d="M197.4 40.6C171 70.6 155 90.0667 155.933 91.4C156.467 92.3333 161.4 98.3333 166.867 104.733L176.867 116.467L179.667 113.4C184.467 108.467 227.8 31 227.8 31C229 29.1333 228.6 29.8 227.8 31L197.4 40.6Z" fill="black"/>
</svg>
