<?xml version="1.0" standalone="no"?>
<!DOCTYPE svg PUBLIC "-//W3C//DTD SVG 20010904//EN"
 "http://www.w3.org/TR/2001/REC-SVG-20010904/DTD/svg10.dtd">
<svg version="1.0" xmlns="http://www.w3.org/2000/svg"
 width="200.000000pt" height="200.000000pt" viewBox="0 0 200.000000 200.000000"
 preserveAspectRatio="xMidYMid meet">

<g transform="translate(0.000000,200.000000) scale(0.100000,-0.100000)"
fill="#000000" stroke="none">
<path d="M302 1868 c-7 -7 -12 -29 -12 -50 l0 -38 -91 0 c-87 0 -92 -1 -120
-29 l-29 -29 0 -775 0 -774 25 -27 24 -26 661 0 661 0 24 25 c24 23 25 30 25
147 l0 122 -50 -49 c-46 -45 -50 -53 -50 -97 l0 -48 -610 0 -610 0 0 730 0
731 68 -3 67 -3 3 -35 c4 -43 18 -60 46 -60 34 0 47 15 53 59 l6 41 88 0 89 0
0 -38 c0 -45 14 -62 52 -62 32 0 48 24 48 69 l0 31 90 0 90 0 0 -38 c0 -45 14
-62 50 -62 36 0 50 17 50 62 l0 38 90 0 90 0 0 -31 c0 -45 16 -69 48 -69 38 0
52 17 52 62 l0 38 70 0 70 0 0 -360 c0 -198 4 -360 8 -360 4 0 27 19 50 43
l42 43 0 338 0 338 -29 29 c-28 28 -33 29 -120 29 l-91 0 0 38 c0 43 -14 62
-46 62 -28 0 -54 -35 -54 -72 l0 -28 -90 0 -90 0 0 38 c0 43 -14 62 -46 62
-32 0 -54 -26 -54 -66 l0 -34 -90 0 -90 0 0 31 c0 46 -16 69 -50 69 -34 0 -50
-23 -50 -69 l0 -31 -90 0 -90 0 0 34 c0 19 -7 42 -16 50 -18 19 -55 21 -72 4z"/>
<path d="M641 1356 c-65 -65 -111 -119 -107 -125 4 -6 18 -11 31 -11 24 0 24
-1 27 -107 l3 -108 60 0 60 0 3 55 c4 62 14 80 48 80 31 0 44 -27 44 -90 l0
-51 63 3 62 3 3 107 c2 100 4 107 24 110 12 2 23 9 26 16 4 14 -205 232 -223
232 -5 0 -61 -51 -124 -114z"/>
<path d="M1730 1165 l-44 -45 84 -85 84 -85 48 47 c26 26 48 54 48 62 0 22
-134 151 -156 151 -11 0 -40 -20 -64 -45z"/>
<path d="M1435 860 l-200 -200 80 -80 c44 -44 84 -80 90 -80 6 0 98 88 205
195 l195 195 -85 85 -85 85 -200 -200z"/>
<path d="M382 834 c-24 -17 -29 -53 -10 -72 9 -9 110 -12 395 -12 l383 0 10
26 c11 29 0 58 -26 68 -8 3 -176 6 -373 6 -306 0 -360 -2 -379 -16z"/>
<path d="M1138 572 c-15 -18 -30 -59 -42 -116 -17 -79 -18 -89 -3 -103 14 -14
23 -14 104 6 61 16 96 30 116 49 l27 26 -82 83 c-45 46 -86 83 -89 83 -4 0
-18 -13 -31 -28z"/>
<path d="M372 528 c-19 -19 -15 -66 7 -78 12 -6 130 -10 315 -10 327 0 296 -7
311 68 l7 32 -314 0 c-231 0 -317 -3 -326 -12z"/>
</g>
</svg>
